<?xml version="1.0" standalone="no"?>
<!DOCTYPE svg PUBLIC "-//W3C//DTD SVG 20010904//EN"
 "http://www.w3.org/TR/2001/REC-SVG-20010904/DTD/svg10.dtd">
<svg version="1.0" xmlns="http://www.w3.org/2000/svg"
 width="139.000000pt" height="139.000000pt" viewBox="0 0 139.000000 139.000000"
 preserveAspectRatio="xMidYMid meet">
<metadata>
Created by potrace 1.14, written by Peter Selinger 2001-2017
</metadata>
<g transform="translate(0.000000,139.000000) scale(0.100000,-0.100000)"
fill="#000000" stroke="none">
<path d="M915 1032 c-137 -11 -211 -85 -202 -200 7 -89 53 -133 190 -178 142
-47 177 -73 177 -134 0 -39 -26 -72 -68 -85 -61 -18 -173 -4 -250 32 -41 20
-52 9 -52 -54 l0 -41 70 -16 c70 -16 190 -22 241 -11 129 26 191 119 159 237
-20 70 -87 117 -242 167 -96 32 -125 63 -118 126 8 76 169 93 287 32 18 -9 36
-17 41 -17 5 0 9 23 8 52 l-1 52 -57 18 c-58 17 -128 25 -183 20z"/>
<path d="M206 1004 c-14 -13 -16 -58 -16 -335 l0 -319 210 0 210 0 0 45 0 45
-163 0 -163 0 2 103 c1 56 2 105 3 108 0 3 53 5 116 4 63 0 120 2 126 6 6 3 9
24 7 45 l-3 39 -115 1 c-63 1 -120 2 -125 3 -12 1 -14 165 -2 177 4 4 74 8
155 8 l147 1 3 43 3 42 -190 0 c-159 0 -192 -3 -205 -16z"/>
</g>
</svg>
